<svg width="39" height="39" viewBox="0 0 39 39" fill="none" xmlns="http://www.w3.org/2000/svg">
<rect width="39" height="39" rx="19.5" fill="#14191C"/>
<path d="M18.1223 11.9416C14.1721 11.9416 10.9543 15.1594 10.9543 19.1096C10.9543 23.0597 14.1721 26.2838 18.1223 26.2838C19.8096 26.2838 21.3613 25.6925 22.5878 24.7108L25.5735 27.6949C25.7242 27.8394 25.9254 27.9191 26.1341 27.9169C26.3429 27.9148 26.5424 27.831 26.6901 27.6835C26.8378 27.5361 26.9219 27.3366 26.9243 27.1279C26.9267 26.9192 26.8473 26.7179 26.7031 26.567L23.7173 23.5812C24.6999 22.3529 25.2919 20.7988 25.2919 19.1096C25.2919 15.1594 22.0725 11.9416 18.1223 11.9416ZM18.1223 13.5348C21.2115 13.5348 23.6971 16.0204 23.6971 19.1096C23.6971 22.1987 21.2115 24.6905 18.1223 24.6905C15.0332 24.6905 12.5476 22.1987 12.5476 19.1096C12.5476 16.0204 15.0332 13.5348 18.1223 13.5348Z" fill="white"/>
</svg>
